# xmcd
#
# Track frame offsets: 
#        182
#        29470
#        52000
#        69305
#        94420
#        111077
#        134387
#        152260
#        172007
#        190860
#        208537
#
# Disc length: 3049 seconds
#
# Revision: 5
# Processed by: cddbd v1.5.1PL0 Copyright (c) Steve Scherf et al.
# Submitted via: ExactAudioCopy v0.95a5
#
DISCID=960be70b
DTITLE=Meat Loaf - Blind Before I Stop
DYEAR=1986
DGENRE=Rock
TTITLE0=Execution Day
TTITLE1=Rock 'n' Roll Mercenaries
TTITLE2=Getting Away With Murder
TTITLE3=One More Kiss (Night Of The Soft Parade)
TTITLE4=Blind Before I Stop
TTITLE5=Burning Down
TTITLE6=Standing On The Outside
TTITLE7=Masculine
TTITLE8=A Man And A Woman
TTITLE9=Special Girl
TTITLE10=Rock 'n' Roll Hero
EXTD=YEAR: 1986
EXTT0=
EXTT1=
EXTT2=
EXTT3=
EXTT4=
EXTT5=
EXTT6=
EXTT7=
EXTT8=
EXTT9=
EXTT10=
PLAYORDER=
